<svg xmlns="http://www.w3.org/2000/svg" xmlns:xlink="http://www.w3.org/1999/xlink" width="500" zoomAndPan="magnify" viewBox="0 0 375 374.999991" height="500" preserveAspectRatio="xMidYMid meet" version="1.0"><defs><g/><clipPath id="7eeb617fed"><path d="M 42 90.039062 L 337.5 90.039062 L 337.5 198 L 42 198 Z M 42 90.039062 " clip-rule="nonzero"/></clipPath></defs><g clip-path="url(#7eeb617fed)"><path fill="#c6ffad" d="M 276.558594 183.777344 C 277.210938 179.648438 279.296875 167.886719 282.566406 163.09375 C 282.566406 163.09375 283.667969 167.632812 279.613281 184.371094 C 279.503906 184.820312 280.039062 185.140625 280.378906 184.832031 C 297.304688 169.390625 284.367188 152.082031 284.367188 152.082031 C 284.367188 152.082031 265.847656 163.171875 275.675781 183.90625 C 275.871094 184.316406 276.484375 184.230469 276.558594 183.777344 Z M 285.425781 190.234375 C 291.789062 186.667969 310.183594 176.8125 320.296875 176.144531 C 320.296875 176.144531 315.269531 182.578125 287.917969 195.097656 C 287.1875 195.433594 287.324219 196.515625 288.121094 196.648438 C 327.617188 203.296875 337.34375 166.707031 337.34375 166.707031 C 337.34375 166.707031 302.089844 153.148438 284.296875 189.15625 C 283.941406 189.875 284.726562 190.628906 285.425781 190.234375 Z M 104.371094 121.871094 C 114.199219 101.140625 95.679688 90.050781 95.679688 90.050781 C 95.679688 90.050781 82.742188 107.359375 99.667969 122.792969 C 100.007812 123.101562 100.542969 122.785156 100.433594 122.335938 C 96.375 105.59375 97.480469 101.0625 97.480469 101.0625 C 100.753906 105.851562 102.839844 117.613281 103.492188 121.742188 C 103.5625 122.195312 104.175781 122.285156 104.371094 121.871094 Z M 94.621094 128.203125 C 88.257812 124.636719 69.863281 114.777344 59.753906 114.109375 C 59.753906 114.109375 64.777344 120.539062 92.128906 133.058594 C 92.863281 133.394531 92.722656 134.480469 91.925781 134.613281 C 52.433594 141.265625 42.703125 104.671875 42.703125 104.671875 C 42.703125 104.671875 77.960938 91.117188 95.75 127.121094 C 96.105469 127.84375 95.320312 128.59375 94.621094 128.203125 " fill-opacity="1" fill-rule="nonzero"/></g><path fill="#17415f" d="M 217.402344 185.589844 L 217.402344 178.867188 C 217.402344 178.1875 216.851562 177.636719 216.175781 177.636719 L 209.472656 177.636719 C 208.796875 177.636719 208.25 178.1875 208.25 178.867188 L 208.25 185.589844 C 208.25 186.269531 208.796875 186.820312 209.472656 186.820312 L 216.175781 186.820312 C 216.851562 186.820312 217.402344 186.269531 217.402344 185.589844 Z M 204.863281 185.589844 L 204.863281 178.867188 C 204.863281 178.1875 204.316406 177.636719 203.640625 177.636719 L 196.9375 177.636719 C 196.257812 177.636719 195.710938 178.1875 195.710938 178.867188 L 195.710938 185.589844 C 195.710938 186.269531 196.257812 186.820312 196.9375 186.820312 L 203.640625 186.820312 C 204.316406 186.820312 204.863281 186.269531 204.863281 185.589844 Z M 217.402344 173.539062 L 217.402344 166.816406 C 217.402344 166.136719 216.851562 165.585938 216.175781 165.585938 L 209.472656 165.585938 C 208.796875 165.585938 208.25 166.136719 208.25 166.816406 L 208.25 173.539062 C 208.25 174.21875 208.796875 174.769531 209.472656 174.769531 L 216.175781 174.769531 C 216.851562 174.769531 217.402344 174.21875 217.402344 173.539062 Z M 204.863281 173.539062 L 204.863281 166.816406 C 204.863281 166.136719 204.316406 165.585938 203.640625 165.585938 L 196.9375 165.585938 C 196.257812 165.585938 195.710938 166.136719 195.710938 166.816406 L 195.710938 173.539062 C 195.710938 174.21875 196.257812 174.769531 196.9375 174.769531 L 203.640625 174.769531 C 204.316406 174.769531 204.863281 174.21875 204.863281 173.539062 Z M 126.296875 185.589844 L 126.296875 178.867188 C 126.296875 178.1875 125.746094 177.636719 125.070312 177.636719 L 118.367188 177.636719 C 117.691406 177.636719 117.140625 178.1875 117.140625 178.867188 L 117.140625 185.589844 C 117.140625 186.269531 117.691406 186.820312 118.367188 186.820312 L 125.070312 186.820312 C 125.746094 186.820312 126.296875 186.269531 126.296875 185.589844 Z M 113.757812 185.589844 L 113.757812 178.867188 C 113.757812 178.1875 113.210938 177.636719 112.535156 177.636719 L 105.828125 177.636719 C 105.152344 177.636719 104.605469 178.1875 104.605469 178.867188 L 104.605469 185.589844 C 104.605469 186.269531 105.152344 186.820312 105.828125 186.820312 L 112.535156 186.820312 C 113.210938 186.820312 113.757812 186.269531 113.757812 185.589844 Z M 126.296875 173.539062 L 126.296875 166.816406 C 126.296875 166.136719 125.746094 165.585938 125.070312 165.585938 L 118.367188 165.585938 C 117.691406 165.585938 117.140625 166.136719 117.140625 166.816406 L 117.140625 173.539062 C 117.140625 174.21875 117.691406 174.769531 118.367188 174.769531 L 125.070312 174.769531 C 125.746094 174.769531 126.296875 174.21875 126.296875 173.539062 Z M 113.757812 173.539062 L 113.757812 166.816406 C 113.757812 166.136719 113.210938 165.585938 112.535156 165.585938 L 105.828125 165.585938 C 105.152344 165.585938 104.605469 166.136719 104.605469 166.816406 L 104.605469 173.539062 C 104.605469 174.21875 105.152344 174.769531 105.828125 174.769531 L 112.535156 174.769531 C 113.210938 174.769531 113.757812 174.21875 113.757812 173.539062 Z M 207.992188 124.011719 L 281.660156 196.015625 C 283.636719 197.949219 282.273438 201.3125 279.511719 201.3125 L 264.691406 201.3125 C 263.890625 201.3125 263.121094 201 262.546875 200.4375 L 207.992188 147.117188 C 206.796875 145.949219 204.890625 145.949219 203.695312 147.117188 L 174.726562 175.433594 C 173.488281 176.640625 173.488281 178.640625 174.726562 179.855469 L 191.261719 196.015625 C 193.242188 197.949219 191.878906 201.3125 189.117188 201.3125 L 174.296875 201.3125 C 173.496094 201.3125 172.726562 201 172.152344 200.4375 L 160.644531 189.191406 L 148.828125 177.644531 L 117.597656 147.117188 C 116.402344 145.949219 114.496094 145.949219 113.300781 147.117188 L 58.746094 200.4375 C 58.171875 201 57.402344 201.3125 56.601562 201.3125 L 41.78125 201.3125 C 39.023438 201.3125 37.65625 197.949219 39.636719 196.015625 L 113.300781 124.011719 C 114.496094 122.84375 116.402344 122.84375 117.597656 124.011719 L 158.5 163.992188 C 159.695312 165.15625 161.597656 165.15625 162.792969 163.992188 L 203.695312 124.011719 C 204.890625 122.84375 206.796875 122.84375 207.992188 124.011719 " fill-opacity="1" fill-rule="nonzero"/><g fill="#17415f" fill-opacity="1"><g transform="translate(127.517869, 298.63271)"><g><path d="M 20.5 0.671875 C 13.894531 0.671875 9.125 -0.960938 6.1875 -4.234375 C 3.25 -7.515625 1.78125 -12.796875 1.78125 -20.078125 L 1.78125 -27.1875 L 16.09375 -27.1875 L 16.09375 -18.125 C 16.09375 -14.507812 17.25 -12.703125 19.5625 -12.703125 C 20.863281 -12.703125 21.769531 -13.082031 22.28125 -13.84375 C 22.789062 -14.613281 23.046875 -15.898438 23.046875 -17.703125 C 23.046875 -20.078125 22.757812 -22.039062 22.1875 -23.59375 C 21.625 -25.144531 20.90625 -26.441406 20.03125 -27.484375 C 19.15625 -28.535156 17.585938 -30.160156 15.328125 -32.359375 L 9.0625 -38.625 C 4.207031 -43.375 1.78125 -48.628906 1.78125 -54.390625 C 1.78125 -60.597656 3.203125 -65.328125 6.046875 -68.578125 C 8.898438 -71.828125 13.066406 -73.453125 18.546875 -73.453125 C 25.097656 -73.453125 29.8125 -71.710938 32.6875 -68.234375 C 35.570312 -64.765625 37.015625 -59.332031 37.015625 -51.9375 L 22.203125 -51.9375 L 22.109375 -56.9375 C 22.109375 -57.894531 21.835938 -58.65625 21.296875 -59.21875 C 20.765625 -59.78125 20.019531 -60.0625 19.0625 -60.0625 C 17.9375 -60.0625 17.085938 -59.75 16.515625 -59.125 C 15.953125 -58.507812 15.671875 -57.664062 15.671875 -56.59375 C 15.671875 -54.21875 17.023438 -51.757812 19.734375 -49.21875 L 28.21875 -41.09375 C 30.1875 -39.164062 31.820312 -37.34375 33.125 -35.625 C 34.425781 -33.90625 35.472656 -31.875 36.265625 -29.53125 C 37.054688 -27.1875 37.453125 -24.398438 37.453125 -21.171875 C 37.453125 -14.003906 36.132812 -8.570312 33.5 -4.875 C 30.875 -1.175781 26.539062 0.671875 20.5 0.671875 Z M 20.5 0.671875 "/></g></g></g><g fill="#17415f" fill-opacity="1"><g transform="translate(166.571436, 298.63271)"><g><path d="M 22.359375 0 L 22.359375 -11.515625 L 0.765625 -11.515625 L 0.765625 -22.875 L 14.484375 -72.859375 L 37.1875 -72.859375 L 37.1875 -23.640625 L 41.09375 -23.640625 L 41.09375 -11.515625 L 37.1875 -11.515625 L 37.1875 0 Z M 13.71875 -23.640625 L 22.359375 -23.640625 L 22.359375 -60.3125 Z M 13.71875 -23.640625 "/></g></g></g><g fill="#17415f" fill-opacity="1"><g transform="translate(208.420589, 298.63271)"><g><path d="M 20.5 0.671875 C 13.894531 0.671875 9.125 -0.960938 6.1875 -4.234375 C 3.25 -7.515625 1.78125 -12.796875 1.78125 -20.078125 L 1.78125 -27.1875 L 16.09375 -27.1875 L 16.09375 -18.125 C 16.09375 -14.507812 17.25 -12.703125 19.5625 -12.703125 C 20.863281 -12.703125 21.769531 -13.082031 22.28125 -13.84375 C 22.789062 -14.613281 23.046875 -15.898438 23.046875 -17.703125 C 23.046875 -20.078125 22.757812 -22.039062 22.1875 -23.59375 C 21.625 -25.144531 20.90625 -26.441406 20.03125 -27.484375 C 19.15625 -28.535156 17.585938 -30.160156 15.328125 -32.359375 L 9.0625 -38.625 C 4.207031 -43.375 1.78125 -48.628906 1.78125 -54.390625 C 1.78125 -60.597656 3.203125 -65.328125 6.046875 -68.578125 C 8.898438 -71.828125 13.066406 -73.453125 18.546875 -73.453125 C 25.097656 -73.453125 29.8125 -71.710938 32.6875 -68.234375 C 35.570312 -64.765625 37.015625 -59.332031 37.015625 -51.9375 L 22.203125 -51.9375 L 22.109375 -56.9375 C 22.109375 -57.894531 21.835938 -58.65625 21.296875 -59.21875 C 20.765625 -59.78125 20.019531 -60.0625 19.0625 -60.0625 C 17.9375 -60.0625 17.085938 -59.75 16.515625 -59.125 C 15.953125 -58.507812 15.671875 -57.664062 15.671875 -56.59375 C 15.671875 -54.21875 17.023438 -51.757812 19.734375 -49.21875 L 28.21875 -41.09375 C 30.1875 -39.164062 31.820312 -37.34375 33.125 -35.625 C 34.425781 -33.90625 35.472656 -31.875 36.265625 -29.53125 C 37.054688 -27.1875 37.453125 -24.398438 37.453125 -21.171875 C 37.453125 -14.003906 36.132812 -8.570312 33.5 -4.875 C 30.875 -1.175781 26.539062 0.671875 20.5 0.671875 Z M 20.5 0.671875 "/></g></g></g></svg>