<svg xmlns="http://www.w3.org/2000/svg" xmlns:xlink="http://www.w3.org/1999/xlink" width="500" zoomAndPan="magnify" viewBox="0 0 375 247.499998" height="330" preserveAspectRatio="xMidYMid meet" version="1.0"><defs><g/><clipPath id="ab4637e853"><path d="M 6 0 L 374.621094 0 L 374.621094 134 L 6 134 Z M 6 0 " clip-rule="nonzero"/></clipPath></defs><g clip-path="url(#ab4637e853)"><path fill="#c6ffad" d="M 298.605469 116.46875 C 299.417969 111.34375 302.019531 96.722656 306.101562 90.769531 C 306.101562 90.769531 307.476562 96.410156 302.414062 117.207031 C 302.277344 117.765625 302.945312 118.164062 303.371094 117.777344 C 324.488281 98.59375 308.347656 77.089844 308.347656 77.089844 C 308.347656 77.089844 285.246094 90.867188 297.503906 116.628906 C 297.75 117.140625 298.515625 117.035156 298.605469 116.46875 Z M 309.667969 124.496094 C 317.605469 120.0625 340.554688 107.816406 353.171875 106.984375 C 353.171875 106.984375 346.898438 114.976562 312.777344 130.535156 C 311.863281 130.953125 312.035156 132.300781 313.027344 132.464844 C 362.304688 140.726562 374.441406 95.261719 374.441406 95.261719 C 374.441406 95.261719 330.453125 78.414062 308.257812 123.152344 C 307.816406 124.046875 308.792969 124.984375 309.667969 124.496094 Z M 83.792969 39.550781 C 96.054688 13.789062 72.949219 0.0117188 72.949219 0.0117188 C 72.949219 0.0117188 56.808594 21.515625 77.925781 40.695312 C 78.351562 41.082031 79.019531 40.6875 78.882812 40.128906 C 73.816406 19.328125 75.195312 13.695312 75.195312 13.695312 C 79.277344 19.644531 81.878906 34.261719 82.695312 39.390625 C 82.78125 39.953125 83.546875 40.066406 83.792969 39.550781 Z M 71.628906 47.417969 C 63.691406 42.984375 40.742188 30.734375 28.128906 29.910156 C 28.128906 29.910156 34.398438 37.898438 68.519531 53.453125 C 69.433594 53.871094 69.257812 55.21875 68.265625 55.382812 C 18.996094 63.648438 6.855469 18.179688 6.855469 18.179688 C 6.855469 18.179688 50.839844 1.339844 73.039062 46.074219 C 73.480469 46.972656 72.5 47.902344 71.628906 47.417969 " fill-opacity="1" fill-rule="nonzero"/></g><path fill="#17415f" d="M 224.804688 118.722656 L 224.804688 110.371094 C 224.804688 109.523438 224.117188 108.839844 223.277344 108.839844 L 214.914062 108.839844 C 214.070312 108.839844 213.386719 109.523438 213.386719 110.371094 L 213.386719 118.722656 C 213.386719 119.570312 214.070312 120.25 214.914062 120.25 L 223.277344 120.25 C 224.117188 120.25 224.804688 119.570312 224.804688 118.722656 Z M 209.164062 118.722656 L 209.164062 110.371094 C 209.164062 109.523438 208.480469 108.839844 207.636719 108.839844 L 199.273438 108.839844 C 198.425781 108.839844 197.742188 109.523438 197.742188 110.371094 L 197.742188 118.722656 C 197.742188 119.570312 198.425781 120.25 199.273438 120.25 L 207.636719 120.25 C 208.480469 120.25 209.164062 119.570312 209.164062 118.722656 Z M 224.804688 103.75 L 224.804688 95.394531 C 224.804688 94.550781 224.117188 93.867188 223.277344 93.867188 L 214.914062 93.867188 C 214.070312 93.867188 213.386719 94.550781 213.386719 95.394531 L 213.386719 103.75 C 213.386719 104.59375 214.070312 105.277344 214.914062 105.277344 L 223.277344 105.277344 C 224.117188 105.277344 224.804688 104.59375 224.804688 103.75 Z M 209.164062 103.75 L 209.164062 95.394531 C 209.164062 94.550781 208.480469 93.867188 207.636719 93.867188 L 199.273438 93.867188 C 198.425781 93.867188 197.742188 94.550781 197.742188 95.394531 L 197.742188 103.75 C 197.742188 104.59375 198.425781 105.277344 199.273438 105.277344 L 207.636719 105.277344 C 208.480469 105.277344 209.164062 104.59375 209.164062 103.75 Z M 111.144531 118.722656 L 111.144531 110.371094 C 111.144531 109.523438 110.457031 108.839844 109.613281 108.839844 L 101.25 108.839844 C 100.40625 108.839844 99.722656 109.523438 99.722656 110.371094 L 99.722656 118.722656 C 99.722656 119.570312 100.40625 120.25 101.25 120.25 L 109.613281 120.25 C 110.457031 120.25 111.144531 119.570312 111.144531 118.722656 Z M 95.503906 118.722656 L 95.503906 110.371094 C 95.503906 109.523438 94.820312 108.839844 93.976562 108.839844 L 85.613281 108.839844 C 84.769531 108.839844 84.082031 109.523438 84.082031 110.371094 L 84.082031 118.722656 C 84.082031 119.570312 84.769531 120.25 85.613281 120.25 L 93.976562 120.25 C 94.820312 120.25 95.503906 119.570312 95.503906 118.722656 Z M 111.144531 103.75 L 111.144531 95.394531 C 111.144531 94.550781 110.457031 93.867188 109.613281 93.867188 L 101.25 93.867188 C 100.40625 93.867188 99.722656 94.550781 99.722656 95.394531 L 99.722656 103.75 C 99.722656 104.59375 100.40625 105.277344 101.25 105.277344 L 109.613281 105.277344 C 110.457031 105.277344 111.144531 104.59375 111.144531 103.75 Z M 95.503906 103.75 L 95.503906 95.394531 C 95.503906 94.550781 94.820312 93.867188 93.976562 93.867188 L 85.613281 93.867188 C 84.769531 93.867188 84.082031 94.550781 84.082031 95.394531 L 84.082031 103.75 C 84.082031 104.59375 84.769531 105.277344 85.613281 105.277344 L 93.976562 105.277344 C 94.820312 105.277344 95.503906 104.59375 95.503906 103.75 Z M 213.066406 42.210938 L 304.96875 131.679688 C 307.433594 134.078125 305.734375 138.261719 302.289062 138.261719 L 283.800781 138.261719 C 282.800781 138.261719 281.839844 137.867188 281.125 137.171875 L 213.066406 70.917969 C 211.570312 69.46875 209.195312 69.46875 207.703125 70.917969 L 171.566406 106.101562 C 170.019531 107.605469 170.019531 110.089844 171.566406 111.59375 L 192.195312 131.679688 C 194.664062 134.078125 192.960938 138.261719 189.519531 138.261719 L 171.03125 138.261719 C 170.03125 138.261719 169.066406 137.867188 168.351562 137.171875 L 154 123.199219 L 139.253906 108.847656 L 100.292969 70.917969 C 98.800781 69.46875 96.425781 69.46875 94.933594 70.917969 L 26.875 137.171875 C 26.15625 137.867188 25.195312 138.261719 24.195312 138.261719 L 5.707031 138.261719 C 2.265625 138.261719 0.5625 134.078125 3.03125 131.679688 L 94.933594 42.210938 C 96.425781 40.757812 98.800781 40.757812 100.292969 42.210938 L 151.320312 91.886719 C 152.808594 93.335938 155.1875 93.335938 156.675781 91.886719 L 207.703125 42.210938 C 209.195312 40.757812 211.570312 40.757812 213.066406 42.210938 " fill-opacity="1" fill-rule="nonzero"/><g fill="#17415f" fill-opacity="1"><g transform="translate(131.342425, 219.974949)"><g><path d="M 19.1875 0.640625 C 13.007812 0.640625 8.546875 -0.890625 5.796875 -3.953125 C 3.046875 -7.023438 1.671875 -11.972656 1.671875 -18.796875 L 1.671875 -25.453125 L 15.0625 -25.453125 L 15.0625 -16.96875 C 15.0625 -13.582031 16.148438 -11.890625 18.328125 -11.890625 C 19.535156 -11.890625 20.378906 -12.242188 20.859375 -12.953125 C 21.335938 -13.671875 21.578125 -14.878906 21.578125 -16.578125 C 21.578125 -18.796875 21.3125 -20.628906 20.78125 -22.078125 C 20.25 -23.535156 19.570312 -24.753906 18.75 -25.734375 C 17.9375 -26.710938 16.472656 -28.234375 14.359375 -30.296875 L 8.484375 -36.171875 C 3.941406 -40.609375 1.671875 -45.523438 1.671875 -50.921875 C 1.671875 -56.734375 3.003906 -61.160156 5.671875 -64.203125 C 8.335938 -67.242188 12.238281 -68.765625 17.375 -68.765625 C 23.5 -68.765625 27.910156 -67.140625 30.609375 -63.890625 C 33.304688 -60.640625 34.65625 -55.550781 34.65625 -48.625 L 20.78125 -48.625 L 20.703125 -53.296875 C 20.703125 -54.191406 20.445312 -54.90625 19.9375 -55.4375 C 19.4375 -55.96875 18.738281 -56.234375 17.84375 -56.234375 C 16.789062 -56.234375 16 -55.941406 15.46875 -55.359375 C 14.9375 -54.773438 14.671875 -53.984375 14.671875 -52.984375 C 14.671875 -50.765625 15.941406 -48.460938 18.484375 -46.078125 L 26.40625 -38.46875 C 28.257812 -36.664062 29.789062 -34.957031 31 -33.34375 C 32.21875 -31.738281 33.195312 -29.835938 33.9375 -27.640625 C 34.6875 -25.441406 35.0625 -22.835938 35.0625 -19.828125 C 35.0625 -13.109375 33.832031 -8.015625 31.375 -4.546875 C 28.914062 -1.085938 24.851562 0.640625 19.1875 0.640625 Z M 19.1875 0.640625 "/></g></g></g><g fill="#17415f" fill-opacity="1"><g transform="translate(167.90587, 219.974949)"><g><path d="M 20.9375 0 L 20.9375 -10.78125 L 0.71875 -10.78125 L 0.71875 -21.421875 L 13.5625 -68.203125 L 34.8125 -68.203125 L 34.8125 -22.125 L 38.46875 -22.125 L 38.46875 -10.78125 L 34.8125 -10.78125 L 34.8125 0 Z M 12.84375 -22.125 L 20.9375 -22.125 L 20.9375 -56.46875 Z M 12.84375 -22.125 "/></g></g></g><g fill="#17415f" fill-opacity="1"><g transform="translate(207.086649, 219.974949)"><g><path d="M 19.1875 0.640625 C 13.007812 0.640625 8.546875 -0.890625 5.796875 -3.953125 C 3.046875 -7.023438 1.671875 -11.972656 1.671875 -18.796875 L 1.671875 -25.453125 L 15.0625 -25.453125 L 15.0625 -16.96875 C 15.0625 -13.582031 16.148438 -11.890625 18.328125 -11.890625 C 19.535156 -11.890625 20.378906 -12.242188 20.859375 -12.953125 C 21.335938 -13.671875 21.578125 -14.878906 21.578125 -16.578125 C 21.578125 -18.796875 21.3125 -20.628906 20.78125 -22.078125 C 20.25 -23.535156 19.570312 -24.753906 18.75 -25.734375 C 17.9375 -26.710938 16.472656 -28.234375 14.359375 -30.296875 L 8.484375 -36.171875 C 3.941406 -40.609375 1.671875 -45.523438 1.671875 -50.921875 C 1.671875 -56.734375 3.003906 -61.160156 5.671875 -64.203125 C 8.335938 -67.242188 12.238281 -68.765625 17.375 -68.765625 C 23.5 -68.765625 27.910156 -67.140625 30.609375 -63.890625 C 33.304688 -60.640625 34.65625 -55.550781 34.65625 -48.625 L 20.78125 -48.625 L 20.703125 -53.296875 C 20.703125 -54.191406 20.445312 -54.90625 19.9375 -55.4375 C 19.4375 -55.96875 18.738281 -56.234375 17.84375 -56.234375 C 16.789062 -56.234375 16 -55.941406 15.46875 -55.359375 C 14.9375 -54.773438 14.671875 -53.984375 14.671875 -52.984375 C 14.671875 -50.765625 15.941406 -48.460938 18.484375 -46.078125 L 26.40625 -38.46875 C 28.257812 -36.664062 29.789062 -34.957031 31 -33.34375 C 32.21875 -31.738281 33.195312 -29.835938 33.9375 -27.640625 C 34.6875 -25.441406 35.0625 -22.835938 35.0625 -19.828125 C 35.0625 -13.109375 33.832031 -8.015625 31.375 -4.546875 C 28.914062 -1.085938 24.851562 0.640625 19.1875 0.640625 Z M 19.1875 0.640625 "/></g></g></g></svg>